# xmcd
#
# Track frame offsets:
#	150
#	10841
#	25879
#	43164
#	58175
#	73092
#	88519
#	100753
#	112044
#	128089
#	145183
#	161328
#	173514
#	186161
#	200485
#	213888
#	232649
#	246566
#	263448
#	282749
#
# Disc length: 3959 seconds
#
# Revision: 1
# Processed by: cddbd v1.5.2PL0 Copyright (c) Steve Scherf et al.
# Submitted via: EasyCDDAExtractor 16.0.6.1
#
DISCID=180f7514
DTITLE=Comunidade Samba da Canja vol. 1 - Um Canto Do Compositor
DYEAR=2017
DGENRE=
TTITLE0=A vida é boa
TTITLE1=Água de beber - Água de chorar
TTITLE2=Amor envolvente
TTITLE3=Aonde cabe o samba
TTITLE4=Dúvidas
TTITLE5=Flor em criança
TTITLE6=Maria Estela
TTITLE7=Morando na rua
TTITLE8=Morena da Portela
TTITLE9=Na atividade
TTITLE10=Nome de flor
TTITLE11=O samba e a arte
TTITLE12=Odaya Sereia
TTITLE13=Pra você
TTITLE14=Quem bate apanha
TTITLE15=Reunião de bambas
TTITLE16=Roda de samba
TTITLE17=Sentimento sincero
TTITLE18=Só com green card
TTITLE19=Talvez um dia
EXTD=
EXTT0=
EXTT1=
EXTT2=
EXTT3=
EXTT4=
EXTT5=
EXTT6=
EXTT7=
EXTT8=
EXTT9=
EXTT10=
EXTT11=
EXTT12=
EXTT13=
EXTT14=
EXTT15=
EXTT16=
EXTT17=
EXTT18=
EXTT19=
PLAYORDER=
